<?xml version="1.0" encoding="UTF-8" standalone="no"?>
<svg
   width="128"
   height="112"
   viewBox="0 0 128 112"
   fill="none"
   version="1.1"
   id="svg2"
   sodipodi:docname="Logo_A.svg"
   inkscape:version="1.4.2 (ebf0e940, 2025-05-08)"
   xmlns:inkscape="http://www.inkscape.org/namespaces/inkscape"
   xmlns:sodipodi="http://sodipodi.sourceforge.net/DTD/sodipodi-0.dtd"
   xmlns="http://www.w3.org/2000/svg"
   xmlns:svg="http://www.w3.org/2000/svg">
  <defs
     id="defs2" />
  <sodipodi:namedview
     id="namedview2"
     pagecolor="#ffffff"
     bordercolor="#000000"
     borderopacity="0.25"
     inkscape:showpageshadow="2"
     inkscape:pageopacity="0.0"
     inkscape:pagecheckerboard="0"
     inkscape:deskcolor="#d1d1d1"
     inkscape:zoom="2.6886807"
     inkscape:cx="69.922769"
     inkscape:cy="51.140323"
     inkscape:window-width="1216"
     inkscape:window-height="822"
     inkscape:window-x="0"
     inkscape:window-y="38"
     inkscape:window-maximized="0"
     inkscape:current-layer="svg2" />
  <path
     fill-rule="evenodd"
     clip-rule="evenodd"
     d="M8.08835 111.263C-13.4681 103.91 11.8031 70.0623 40.0729 68.4243L42.5622 68.2801L42.7514 69.495C43.2446 72.6605 44.4283 74.1506 55.4175 85.439L60.9192 91.0905L49.5245 91.2536C31.2727 91.515 30.2155 91.9455 25.5488 101.017C20.812 110.224 15.0144 113.626 8.08835 111.263ZM104.437 110.953C99.7539 109.33 98.4293 107.73 93.8212 98.1279L90.8911 92.0223L93.0465 89.7252C94.232 88.4618 96.8611 85.709 98.8889 83.6078C100.917 81.5066 104.05 78.2498 105.852 76.3703C107.654 74.4909 109.233 72.9531 109.362 72.9531C109.591 72.9531 111.557 76.9831 116.221 87.0161C117.531 89.8353 118.959 92.8723 119.394 93.7649C124.434 104.11 115.226 114.692 104.437 110.953ZM10.413 73.7941C10.413 73.7334 10.9182 72.6323 11.5357 71.347C12.1532 70.0618 14.7501 64.5153 17.3066 59.0216C19.8632 53.5278 22.5356 47.7909 23.2455 46.2729C23.9553 44.7549 25.3045 41.8568 26.2435 39.8328C30.7076 30.2114 40.3137 9.9686 41.0419 8.6485C46.9109 -1.99138 70.0833 -3.0903 78.0705 6.89247C78.8909 7.91774 81.1611 12.4172 85.7531 22.1188C89.3381 29.6929 93.21 37.8352 94.3573 40.2127L96.4433 44.5356L95.1231 45.8642C94.397 46.595 91.3591 49.6769 88.3721 52.7129C85.3851 55.749 81.8135 59.3457 80.4351 60.7056L77.9291 63.1783L76.235 59.7856C75.3032 57.9197 71.3381 49.7098 67.4236 41.5414C63.509 33.373 60.2828 26.66 60.2541 26.6235C60.2013 26.5564 59.247 28.5424 49.0309 49.9804L43.3182 61.9681L40.5875 62.1253C31.1037 62.6715 18.6818 67.2922 11.7101 72.8672C10.9967 73.4377 10.413 73.8548 10.413 73.7941Z"
     fill="white"
     id="path1" />
</svg>
