<?xml version="1.0" encoding="UTF-8" standalone="no"?>
<svg
   width="128"
   height="112"
   viewBox="0 0 128 112"
   fill="none"
   version="1.1"
   id="svg2"
   sodipodi:docname="Logo_Check.svg"
   inkscape:version="1.4.2 (ebf0e940, 2025-05-08)"
   xmlns:inkscape="http://www.inkscape.org/namespaces/inkscape"
   xmlns:sodipodi="http://sodipodi.sourceforge.net/DTD/sodipodi-0.dtd"
   xmlns="http://www.w3.org/2000/svg"
   xmlns:svg="http://www.w3.org/2000/svg">
  <defs
     id="defs2" />
  <sodipodi:namedview
     id="namedview2"
     pagecolor="#ffffff"
     bordercolor="#000000"
     borderopacity="0.25"
     inkscape:showpageshadow="2"
     inkscape:pageopacity="0.0"
     inkscape:pagecheckerboard="0"
     inkscape:deskcolor="#d1d1d1"
     inkscape:zoom="2.6886807"
     inkscape:cx="69.922769"
     inkscape:cy="51.140323"
     inkscape:window-width="1216"
     inkscape:window-height="822"
     inkscape:window-x="0"
     inkscape:window-y="38"
     inkscape:window-maximized="0"
     inkscape:current-layer="svg2" />
  <path
     d="M73.8439 93.2221C71.0817 92.3531 70.377 91.7138 54.8334 75.976C47.6391 68.6918 46.7833 64.6718 51.5367 60.4899C56.6061 56.03 60.1372 57.3249 69.9895 67.2569L76.3336 73.6522L78.2631 71.7255C79.3243 70.6658 81.2884 68.6751 82.6277 67.3016C86.1402 63.6995 99.001 50.6499 102.834 46.7986L102.858 46.775C112.443 37.1439 114.457 35.1209 116.764 34.696C117.378 34.583 118.012 34.583 118.815 34.583H118.823C124.859 34.583 128.836 40.2626 126.37 45.3605C125.699 46.7485 123.16 49.4576 101.492 71.9135C79.4272 94.7801 79.2442 94.9212 73.8439 93.2221Z"
     fill="#16C2B8"
     id="path2" />
</svg>
